<?xml version="1.0" standalone="no"?>
<!DOCTYPE svg PUBLIC "-//W3C//DTD SVG 20010904//EN"
 "http://www.w3.org/TR/2001/REC-SVG-20010904/DTD/svg10.dtd">
<svg version="1.0" xmlns="http://www.w3.org/2000/svg"
 width="512.000000pt" height="512.000000pt" viewBox="0 0 512.000000 512.000000"
 preserveAspectRatio="xMidYMid meet">
<metadata>
Created by potrace 1.16, written by Peter Selinger 2001-2019
</metadata>
<g transform="translate(0.000000,512.000000) scale(0.100000,-0.100000)"
fill="#000000" stroke="none">
<path d="M295 4941 c-22 -10 -54 -34 -72 -52 -68 -72 -63 48 -63 -1609 0
-1657 -5 -1537 63 -1609 48 -51 100 -71 185 -71 l72 0 0 -480 0 -480 -72 0
c-153 -1 -248 -93 -248 -240 0 -101 49 -181 135 -221 37 -17 71 -19 425 -19
354 0 388 2 425 19 86 40 135 120 135 221 0 147 -95 239 -247 240 l-73 0 0
480 0 480 1600 0 1600 0 0 -480 0 -480 -70 0 c-82 0 -130 -17 -179 -63 -49
-47 -71 -100 -71 -177 0 -77 22 -130 71 -177 66 -63 69 -63 491 -63 427 0 428
1 495 71 44 47 63 98 63 171 0 74 -23 129 -71 175 -49 46 -97 63 -179 63 l-70
0 0 480 0 480 73 0 c84 0 136 20 184 71 68 72 63 -48 63 1611 0 1443 -1 1505
-19 1543 -23 49 -74 99 -123 119 -33 14 -274 16 -2260 16 -2144 0 -2224 -1
-2263 -19z m4445 -152 c63 -23 60 65 60 -1509 0 -1574 3 -1486 -60 -1509 -47
-16 -4313 -16 -4360 0 -63 23 -60 -64 -60 1507 0 1040 3 1438 11 1462 8 21 23
37 43 46 26 11 394 13 2182 14 1580 0 2160 -3 2184 -11z m-3940 -3669 l0 -480
-80 0 -80 0 0 480 0 480 80 0 80 0 0 -480z m3680 0 l0 -480 -80 0 -80 0 0 480
0 480 80 0 80 0 0 -480z m-3415 -654 c61 -26 61 -106 0 -132 -50 -21 -640 -21
-690 0 -60 25 -61 106 -2 131 47 21 643 21 692 1z m3680 0 c37 -16 52 -48 41
-92 -13 -49 -45 -54 -386 -54 -341 0 -373 5 -386 54 -10 43 4 76 39 91 47 21
643 21 692 1z"/>
<path d="M2080 4560 l0 -80 480 0 480 0 0 80 0 80 -480 0 -480 0 0 -80z"/>
<path d="M1760 4240 l0 -80 800 0 800 0 0 80 0 80 -800 0 -800 0 0 -80z"/>
<path d="M660 3820 c-20 -20 -20 -33 -20 -700 0 -667 0 -680 20 -700 19 -19
33 -20 540 -20 507 0 521 1 540 20 20 20 20 33 20 700 0 667 0 680 -20 700
-19 19 -33 20 -540 20 -507 0 -521 -1 -540 -20z m940 -700 l0 -560 -400 0
-400 0 0 560 0 560 400 0 400 0 0 -560z"/>
<path d="M960 3440 l0 -80 80 0 80 0 0 80 0 80 -80 0 -80 0 0 -80z"/>
<path d="M1280 3440 l0 -80 80 0 80 0 0 80 0 80 -80 0 -80 0 0 -80z"/>
<path d="M960 3120 l0 -80 240 0 240 0 0 80 0 80 -240 0 -240 0 0 -80z"/>
<path d="M960 2800 l0 -80 240 0 240 0 0 80 0 80 -240 0 -240 0 0 -80z"/>
<path d="M2020 3820 c-20 -20 -20 -33 -20 -700 0 -667 0 -680 20 -700 19 -19
33 -20 540 -20 507 0 521 1 540 20 20 20 20 33 20 700 0 667 0 680 -20 700
-19 19 -33 20 -540 20 -507 0 -521 -1 -540 -20z m940 -700 l0 -560 -400 0
-400 0 0 560 0 560 400 0 400 0 0 -560z"/>
<path d="M2320 3440 l0 -80 240 0 240 0 0 80 0 80 -240 0 -240 0 0 -80z"/>
<path d="M2320 3120 l0 -80 240 0 240 0 0 80 0 80 -240 0 -240 0 0 -80z"/>
<path d="M2320 2800 l0 -80 240 0 240 0 0 80 0 80 -240 0 -240 0 0 -80z"/>
<path d="M3380 3820 c-20 -20 -20 -33 -20 -700 0 -667 0 -680 20 -700 19 -19
33 -20 540 -20 507 0 521 1 540 20 20 20 20 33 20 700 0 667 0 680 -20 700
-19 19 -33 20 -540 20 -507 0 -521 -1 -540 -20z m940 -700 l0 -560 -400 0
-400 0 0 560 0 560 400 0 400 0 0 -560z"/>
<path d="M3680 3440 l0 -80 80 0 80 0 0 80 0 80 -80 0 -80 0 0 -80z"/>
<path d="M4000 3440 l0 -80 80 0 80 0 0 80 0 80 -80 0 -80 0 0 -80z"/>
<path d="M3680 3120 l0 -80 240 0 240 0 0 80 0 80 -240 0 -240 0 0 -80z"/>
<path d="M3680 2800 l0 -80 80 0 80 0 0 80 0 80 -80 0 -80 0 0 -80z"/>
<path d="M4000 2800 l0 -80 80 0 80 0 0 80 0 80 -80 0 -80 0 0 -80z"/>
<path d="M640 2160 l0 -80 160 0 160 0 0 80 0 80 -160 0 -160 0 0 -80z"/>
<path d="M1120 2160 l0 -80 320 0 320 0 0 80 0 80 -320 0 -320 0 0 -80z"/>
<path d="M2000 2160 l0 -80 80 0 80 0 0 80 0 80 -80 0 -80 0 0 -80z"/>
<path d="M2320 2160 l0 -80 400 0 400 0 0 80 0 80 -400 0 -400 0 0 -80z"/>
<path d="M3360 2160 l0 -80 80 0 80 0 0 80 0 80 -80 0 -80 0 0 -80z"/>
<path d="M3680 2160 l0 -80 80 0 80 0 0 80 0 80 -80 0 -80 0 0 -80z"/>
<path d="M4000 2160 l0 -80 240 0 240 0 0 80 0 80 -240 0 -240 0 0 -80z"/>
</g>
</svg>
