<?xml version="1.0" standalone="no"?>
<!DOCTYPE svg PUBLIC "-//W3C//DTD SVG 20010904//EN"
 "http://www.w3.org/TR/2001/REC-SVG-20010904/DTD/svg10.dtd">
<svg version="1.0" xmlns="http://www.w3.org/2000/svg"
 width="512.000000pt" height="512.000000pt" viewBox="0 0 512.000000 512.000000"
 preserveAspectRatio="xMidYMid meet">
<g transform="translate(0.000000,512.000000) scale(0.100000,-0.100000)"
fill="#000000" stroke="none">
<path d="M2513 4840 c-35 -14 -2443 -1778 -2481 -1816 -27 -29 -32 -41 -32
-84 0 -28 7 -64 15 -80 31 -59 133 -83 192 -45 15 10 541 394 1168 854 627
459 1151 841 1165 849 25 14 49 -3 1185 -835 638 -467 1173 -858 1189 -868 35
-23 101 -24 143 -1 42 21 63 63 63 126 0 43 -5 55 -32 84 -42 43 -2447 1802
-2483 1816 -32 12 -62 12 -92 0z"/>
<path d="M631 2782 c-19 -10 -43 -34 -53 -53 -17 -32 -18 -89 -18 -1194 0
-1132 1 -1161 20 -1192 44 -72 -7 -68 785 -68 791 0 743 -4 782 68 17 29 18
87 23 747 l5 715 29 60 c38 77 114 153 191 191 55 26 69 29 165 29 96 0 110
-3 165 -29 77 -38 153 -114 191 -191 l29 -60 5 -715 c5 -660 6 -718 23 -747
39 -72 -9 -68 782 -68 792 0 741 -4 785 68 19 31 20 60 20 1192 0 1105 -1
1162 -18 1194 -21 40 -73 71 -117 71 -40 0 -94 -28 -119 -63 -21 -28 -21 -34
-24 -1108 l-2 -1079 -525 0 -525 0 0 605 c0 684 -1 697 -72 845 -33 69 -57
101 -127 171 -70 70 -102 94 -171 127 -94 45 -207 72 -300 72 -93 0 -206 -27
-300 -72 -69 -33 -101 -57 -171 -127 -70 -70 -94 -102 -127 -171 -72 -152 -72
-153 -72 -839 l0 -611 -525 0 -525 0 -2 1079 c-3 1074 -3 1080 -24 1108 -43
59 -121 78 -183 45z"/>
</g>
</svg>
